<?xml version="1.0" ?><svg style="enable-background:new 0 0 128 128;" version="1.1" viewBox="0 0 128 128" xml:space="preserve" xmlns="http://www.w3.org/2000/svg" xmlns:xlink="http://www.w3.org/1999/xlink"><style type="text/css">
	.st0{display:none;}
	.st1{display:inline;}
	.st2{fill:none;stroke:#000000;stroke-width:0.1;stroke-miterlimit:10;}
	.st3{fill:none;stroke:#000000;stroke-width:6;stroke-linecap:round;stroke-miterlimit:10;}
	.st4{fill:none;stroke:#000000;stroke-width:6;stroke-miterlimit:10;}
</style><g class="st0" id="Layer_1"><g class="st1" id="XMLID_1233_"><rect class="st2" height="128" id="XMLID_1296_" width="128"/><line class="st2" id="XMLID_1295_" x1="0" x2="128" y1="124" y2="124"/><line class="st2" id="XMLID_1294_" x1="0" x2="128" y1="120" y2="120"/><line class="st2" id="XMLID_1293_" x1="0" x2="128" y1="116" y2="116"/><line class="st2" id="XMLID_1292_" x1="0" x2="128" y1="112" y2="112"/><line class="st2" id="XMLID_1291_" x1="0" x2="128" y1="108" y2="108"/><line class="st2" id="XMLID_1290_" x1="0" x2="128" y1="104" y2="104"/><line class="st2" id="XMLID_1289_" x1="0" x2="128" y1="100" y2="100"/><line class="st2" id="XMLID_1288_" x1="0" x2="128" y1="96" y2="96"/><line class="st2" id="XMLID_1287_" x1="0" x2="128" y1="92" y2="92"/><line class="st2" id="XMLID_1286_" x1="0" x2="128" y1="88" y2="88"/><line class="st2" id="XMLID_1285_" x1="0" x2="128" y1="84" y2="84"/><line class="st2" id="XMLID_1284_" x1="0" x2="128" y1="80" y2="80"/><line class="st2" id="XMLID_1283_" x1="0" x2="128" y1="76" y2="76"/><line class="st2" id="XMLID_1282_" x1="0" x2="128" y1="72" y2="72"/><line class="st2" id="XMLID_1281_" x1="0" x2="128" y1="68" y2="68"/><line class="st2" id="XMLID_1280_" x1="0" x2="128" y1="64" y2="64"/><line class="st2" id="XMLID_1279_" x1="0" x2="128" y1="60" y2="60"/><line class="st2" id="XMLID_1278_" x1="0" x2="128" y1="56" y2="56"/><line class="st2" id="XMLID_1277_" x1="0" x2="128" y1="52" y2="52"/><line class="st2" id="XMLID_1276_" x1="0" x2="128" y1="48" y2="48"/><line class="st2" id="XMLID_1275_" x1="0" x2="128" y1="44" y2="44"/><line class="st2" id="XMLID_1274_" x1="0" x2="128" y1="40" y2="40"/><line class="st2" id="XMLID_1273_" x1="0" x2="128" y1="36" y2="36"/><line class="st2" id="XMLID_1272_" x1="0" x2="128" y1="32" y2="32"/><line class="st2" id="XMLID_1271_" x1="0" x2="128" y1="28" y2="28"/><line class="st2" id="XMLID_1270_" x1="0" x2="128" y1="24" y2="24"/><line class="st2" id="XMLID_1269_" x1="0" x2="128" y1="20" y2="20"/><line class="st2" id="XMLID_1268_" x1="0" x2="128" y1="16" y2="16"/><line class="st2" id="XMLID_1267_" x1="0" x2="128" y1="12" y2="12"/><line class="st2" id="XMLID_1266_" x1="0" x2="128" y1="8" y2="8"/><line class="st2" id="XMLID_1265_" x1="0" x2="128" y1="4" y2="4"/><line class="st2" id="XMLID_1264_" x1="124" x2="124" y1="0" y2="128"/><line class="st2" id="XMLID_1263_" x1="120" x2="120" y1="0" y2="128"/><line class="st2" id="XMLID_1262_" x1="116" x2="116" y1="0" y2="128"/><line class="st2" id="XMLID_1261_" x1="112" x2="112" y1="0" y2="128"/><line class="st2" id="XMLID_1260_" x1="108" x2="108" y1="0" y2="128"/><line class="st2" id="XMLID_1259_" x1="104" x2="104" y1="0" y2="128"/><line class="st2" id="XMLID_1258_" x1="100" x2="100" y1="0" y2="128"/><line class="st2" id="XMLID_1257_" x1="96" x2="96" y1="0" y2="128"/><line class="st2" id="XMLID_1256_" x1="92" x2="92" y1="0" y2="128"/><line class="st2" id="XMLID_1255_" x1="88" x2="88" y1="0" y2="128"/><line class="st2" id="XMLID_1254_" x1="84" x2="84" y1="0" y2="128"/><line class="st2" id="XMLID_1253_" x1="80" x2="80" y1="0" y2="128"/><line class="st2" id="XMLID_1252_" x1="76" x2="76" y1="0" y2="128"/><line class="st2" id="XMLID_1251_" x1="72" x2="72" y1="0" y2="128"/><line class="st2" id="XMLID_1250_" x1="68" x2="68" y1="0" y2="128"/><line class="st2" id="XMLID_1249_" x1="64" x2="64" y1="0" y2="128"/><line class="st2" id="XMLID_1248_" x1="60" x2="60" y1="0" y2="128"/><line class="st2" id="XMLID_1247_" x1="56" x2="56" y1="0" y2="128"/><line class="st2" id="XMLID_1246_" x1="52" x2="52" y1="0" y2="128"/><line class="st2" id="XMLID_1245_" x1="48" x2="48" y1="0" y2="128"/><line class="st2" id="XMLID_1244_" x1="44" x2="44" y1="0" y2="128"/><line class="st2" id="XMLID_1243_" x1="40" x2="40" y1="0" y2="128"/><line class="st2" id="XMLID_1242_" x1="36" x2="36" y1="0" y2="128"/><line class="st2" id="XMLID_1241_" x1="32" x2="32" y1="0" y2="128"/><line class="st2" id="XMLID_1240_" x1="28" x2="28" y1="0" y2="128"/><line class="st2" id="XMLID_1239_" x1="24" x2="24" y1="0" y2="128"/><line class="st2" id="XMLID_1238_" x1="20" x2="20" y1="0" y2="128"/><line class="st2" id="XMLID_1237_" x1="16" x2="16" y1="0" y2="128"/><line class="st2" id="XMLID_1236_" x1="12" x2="12" y1="0" y2="128"/><line class="st2" id="XMLID_1235_" x1="8" x2="8" y1="0" y2="128"/><line class="st2" id="XMLID_1234_" x1="4" x2="4" y1="0" y2="128"/></g></g><g class="st0" id="Layer_2"/><g id="Layer_3"><g id="XMLID_3846_"><polyline class="st3" id="XMLID_3845_" points="16.1,77.6 22.8,77.6 33.8,100 42.8,28 111.9,28   "/></g></g></svg>